<svg version="1.1" viewBox="0.0 0.0 960.0 720.0" fill="none" stroke="none" stroke-linecap="square" stroke-miterlimit="10" xmlns:xlink="http://www.w3.org/1999/xlink" xmlns="http://www.w3.org/2000/svg"><clipPath id="p.0"><path d="m0 0l960.0 0l0 720.0l-960.0 0l0 -720.0z" clip-rule="nonzero"/></clipPath><g clip-path="url(#p.0)"><path fill="#000000" fill-opacity="0.0" d="m0 0l960.0 0l0 720.0l-960.0 0z" fill-rule="evenodd"/><path fill="#000000" fill-opacity="0.0" d="m0 0l960.0 0l0 665.7953l-960.0 0z" fill-rule="evenodd"/><path fill="#ffd966" d="m572.1918 186.89062q-4.4375 10.671875 -10.421875 26.296875q-4.421875 15.109375 -14.328125 44.796875q-14.84375 38.28125 -47.12497 111.453125q-33.078125 74.484375 -47.40625 111.203125q-10.671875 27.34375 -20.046875 43.75q-12.234375 21.609375 -37.234375 21.609375q-14.84375 0 -26.828125 -8.078125q-14.0625 -9.375 -15.109375 -24.734375q-11.96875 -29.953125 -15.09375 -48.953125q-11.46875 -55.734375 -31.78125 -167.45312q-16.921875 52.34375 -36.453125 94.015625q-29.15625 62.5 -38.28125 98.171875q2.34375 5.734375 2.34375 12.234375q0 16.15625 -14.3125 26.3125q-12.5 8.59375 -27.609375 8.59375q-19.015625 0 -31.515625 -9.640625q-13.53125 -10.671875 -14.0625 -29.171875l-8.0625 -30.46875q-8.59375 -40.625 -28.125 -121.34375q-17.1875 -61.71875 -57.5625 -175.78125q-2.34375 -6.515625 -2.34375 -13.015625q0 -15.625 11.984375 -24.75q10.671875 -8.328125 25.78125 -8.328125q19.796875 0 31.515625 16.671875q6.5 9.109375 14.84375 33.0625q25.515625 73.4375 57.546875 214.0625q20.828125 -50.78125 42.453125 -119.796875q17.4375 -56.234375 28.375 -79.9375q26.046875 -56.765625 53.125 -56.765625q25.515625 0 37.234375 27.859375q5.734375 13.28125 11.203125 48.171875q1.5625 10.6875 6.765625 52.34375q5.46875 44.796875 32.8125 163.01562q27.609375 -64.578125 74.21875 -186.1875q2.875 -7.296875 13.546875 -47.921875q7.546875 -29.15625 19.015625 -46.09375q12.4999695 -18.21875 33.328094 -18.21875q15.890625 0 26.296875 9.765625q10.421875 9.765625 10.421875 25.125q0 5.46875 -9.109375 28.125zm307.54675 56.765625q-23.4375 0 -34.640625 -24.734375q-5.203125 -11.71875 -10.40625 -14.0625q-3.90625 -1.828125 -20.578125 -1.828125q-32.8125 0 -75.78125 51.046875q-60.15625 71.34375 -60.15625 133.59375q0 28.375 19.0 48.6875q19.015625 20.3125 45.578125 20.3125q25.78125 0 52.34375 -13.53125q9.375 -4.953125 39.59375 -25.53125q20.3125 -13.53125 30.71875 -13.53125q15.625 0 26.5625 11.453125q10.15625 10.671875 10.15625 24.484375q0 15.359375 -13.546875 26.8125q-71.609375 60.421875 -145.82812 60.421875q-58.59375 0 -98.953125 -42.703125q-38.546875 -41.15625 -38.546875 -96.875q0 -87.25 76.3125 -178.125q64.84375 -77.078125 132.54688 -77.078125q11.453125 0 20.703125 0.78125q9.25 0.78125 16.28125 2.34375q11.453125 -11.203125 27.59375 -11.203125q26.5625 0 32.8125 30.46875q4.421875 21.875 4.421875 51.046875q0 13.015625 -7.546875 23.6875q-9.890625 14.0625 -28.640625 14.0625z" fill-rule="nonzero"/></g></svg>